<?xml version="1.0" encoding="UTF-8" standalone="no"?>
<svg
   version="1.1"
   width="282"
   height="261"
   id="svg151"
   sodipodi:docname="logo_no_text.svg"
   inkscape:version="1.3.2 (091e20ef0f, 2023-11-25)"
   xmlns:inkscape="http://www.inkscape.org/namespaces/inkscape"
   xmlns:sodipodi="http://sodipodi.sourceforge.net/DTD/sodipodi-0.dtd"
   xmlns="http://www.w3.org/2000/svg"
   xmlns:svg="http://www.w3.org/2000/svg">
  <defs
     id="defs151" />
  <sodipodi:namedview
     id="namedview151"
     pagecolor="#ffffff"
     bordercolor="#000000"
     borderopacity="0.25"
     inkscape:showpageshadow="2"
     inkscape:pageopacity="0.0"
     inkscape:pagecheckerboard="0"
     inkscape:deskcolor="#d1d1d1"
     inkscape:zoom="1.6461446"
     inkscape:cx="275.4922"
     inkscape:cy="260.00146"
     inkscape:window-width="2560"
     inkscape:window-height="1364"
     inkscape:window-x="1080"
     inkscape:window-y="220"
     inkscape:window-maximized="1"
     inkscape:current-layer="svg151" />
  <path
     d="m 109.09703,2.1400749 c 6.64539,-0.06476 13.29058,-0.113957 19.93624,-0.138794 2.02799,-0.0081 4.05597,-0.01923 6.08393,-0.03333 2.81606,-0.01769 5.6318,-0.0219 8.4479,-0.02191 0.8194,-0.0071 1.6388,-0.01427 2.48302,-0.02162 4.50295,0.01789 8.22274,0.394257 12.41542,2.25209 1.50607,3.01213 1.12161,6.1128261 1.09766,9.4140631 -0.002,1.094459 -0.002,1.094459 -0.004,2.211029 -0.006,2.333344 -0.0182,4.666593 -0.0309,6.999908 -0.005,1.580728 -0.01,3.161457 -0.0137,4.742188 -0.011,3.877641 -0.0283,7.75521 -0.0488,11.632812 12.9954,1.402682 12.9954,1.402682 24.95801,-2.358398 3.15689,-3.455275 5.16363,-7.505791 7.11279,-11.729493 1.3351,-2.74737 3.06596,-5.139693 4.8667,-7.599609 0.52465,-0.746367 1.0493,-1.492734 1.58985,-2.261719 1.46371,-2.038332 2.95909,-4.049259 4.47265,-6.0507811 4.7761,1.6417831 8.79383,4.2654671 13,7.0000001 -0.61255,3.104885 -1.61907,5.202833 -3.43359,7.785156 -0.72607,1.043174 -0.72607,1.043174 -1.4668,2.107422 -0.50724,0.716074 -1.01449,1.432149 -1.53711,2.169922 -0.99871,1.428376 -1.99741,2.856761 -2.99609,4.285156 -0.666,0.943715 -0.666,0.943715 -1.34546,1.906494 -1.0957,1.566758 -2.16043,3.155069 -3.22095,4.74585 1.44366,-0.0033 1.44366,-0.0033 2.91649,-0.0067 9.05012,-0.02023 18.10023,-0.03524 27.15036,-0.04508 4.65326,-0.0052 9.30651,-0.01233 13.95976,-0.02363 4.48684,-0.01083 8.97365,-0.01684 13.4605,-0.01944 1.7157,-0.0019 3.43139,-0.0055 5.14708,-0.01085 2.39466,-0.0072 4.78925,-0.0083 7.18393,-0.0078 0.71641,-0.0036 1.43282,-0.0072 2.17094,-0.01089 4.89689,0.01037 4.89689,0.01037 6.01094,1.12442 0.10949,1.333257 0.15121,2.672168 0.16495,4.009842 0.0112,0.864372 0.0225,1.728744 0.034,2.619308 0.007,0.956163 0.0146,1.912325 0.0222,2.897461 0.0115,1.001899 0.023,2.003798 0.0349,3.036057 0.0369,3.339756 0.0665,6.67953 0.0955,10.019363 0.0231,2.327207 0.0465,4.654412 0.0702,6.981613 0.0486,4.900392 0.0935,9.8008 0.1359,14.701249 0.0543,6.227506 0.11821,12.454866 0.18517,18.682236 0.0506,4.82096 0.0955,9.64195 0.13885,14.46297 0.0213,2.29172 0.0444,4.58342 0.0695,6.8751 0.11813,11.06135 0.15246,22.10483 -0.32073,33.15889 -0.0312,0.8408 -0.0623,1.68159 -0.0944,2.54786 -0.2954,5.76753 -0.2954,5.76753 -2.53593,8.00805 -2.02978,0.25892 -2.02978,0.25892 -4.57702,0.27174 -0.96434,0.01 -1.92868,0.0194 -2.92225,0.0294 -1.06178,5.9e-4 -2.12356,0.001 -3.21752,0.002 -1.67347,0.0127 -1.67347,0.0127 -3.38074,0.0256 -3.70708,0.0259 -7.41407,0.0379 -11.12122,0.0504 -2.57394,0.0162 -5.14787,0.0333 -7.7218,0.0515 -6.1008,0.0411 -12.20158,0.0741 -18.30245,0.10247 -11.5444,0.0539 -23.08871,0.12247 -34.63299,0.19794 -3.78543,0.0227 -7.57084,0.0391 -11.35631,0.0547 -2.33858,0.0134 -4.67716,0.027 -7.01574,0.0409 -1.56839,0.004 -1.56839,0.004 -3.16846,0.008 -6.24974,0.0437 -12.37749,0.4219 -18.5835,1.16566 0.009,1.01842 0.0178,2.03684 0.0269,3.08612 0.0811,9.59362 0.14103,19.18717 0.18033,28.78105 0.0209,4.93244 0.0492,9.86461 0.0945,14.79689 0.0434,4.7592 0.0674,9.51813 0.0778,14.27751 0.007,1.81652 0.0218,3.63303 0.0434,5.44945 0.029,2.54283 0.033,5.08456 0.0312,7.62754 0.0144,0.75238 0.0288,1.50475 0.0436,2.27993 -0.0269,3.40861 -0.24191,5.35111 -2.27606,8.13785 -3.75207,2.64085 -7.19603,2.69025 -11.70473,2.7041 -1.67169,0.009 -1.67169,0.009 -3.37716,0.0173 -1.82741,0.002 -1.82741,0.002 -3.69173,0.003 -1.28656,0.005 -2.57313,0.01 -3.89868,0.0151 -3.52698,0.0131 -7.05394,0.0196 -10.58094,0.024 -2.20518,0.003 -4.41035,0.007 -6.61552,0.0115 -6.90433,0.0137 -13.808646,0.0233 -20.712976,0.0272 -7.96113,0.004 -15.92208,0.022 -23.88316,0.051 -6.159802,0.0216 -12.319556,0.0317 -18.479397,0.033 -3.676205,10e-4 -7.352249,0.007 -11.028414,0.0248 -4.103013,0.0196 -8.205667,0.0152 -12.308721,0.009 -1.818296,0.0138 -1.818296,0.0138 -3.673325,0.0279 -6.202708,-0.0308 -10.7916672,-0.37801 -16.2668612,-3.38437 -1.333294,-26.61302 -0.98572,-53.21828 -0.703125,-79.85351 0.06732,-6.34496 0.124164,-12.68995 0.17803,-19.03503 0.04264,-4.91198 0.09008,-9.82391 0.139097,-14.73584 0.0229,-2.34367 0.04441,-4.68736 0.06451,-7.03106 0.02859,-3.23911 0.06353,-6.47809 0.1003,-9.71712 0.01099,-1.4504 0.01099,-1.4504 0.0222,-2.9301 0.01685,-1.31057 0.01685,-1.31057 0.03404,-2.64763 0.0078,-0.76261 0.0155,-1.52523 0.02349,-2.31096 0.141458,-1.73875 0.141458,-1.73875 1.141458,-2.73875 1.35095,-0.0927 2.706671,-0.11747 4.060791,-0.11352 0.860817,7e-5 1.7216342,1.5e-4 2.6085362,2.2e-4 0.935411,0.005 1.870822,0.0103 2.834579,0.0156 0.953015,0.001 1.90603,0.003 2.887925,0.004 3.056921,0.006 6.11377,0.0182 9.170669,0.0309 2.067056,0.005 4.134114,0.01 6.201172,0.0137 5.078804,0.0111 10.157554,0.0283 15.236328,0.0488 -0.0018,-0.55476 -0.0037,-1.10952 -0.0056,-1.68109 -0.04413,-13.48653 -0.07712,-26.97305 -0.09804,-40.459639 -0.01045,-6.521965 -0.02464,-13.043878 -0.04725,-19.565813 -0.02167,-6.289354 -0.03368,-12.578657 -0.03888,-18.868046 -0.0037,-2.404272 -0.01095,-4.808541 -0.02171,-7.212791 -0.01443,-3.35723 -0.01652,-6.714251 -0.01559,-10.071507 -0.0072,-1.002689 -0.01438,-2.005378 -0.02179,-3.038452 0.0027,-0.911478 0.0055,-1.822956 0.0083,-2.7620541 -0.0018,-0.794586 -0.0037,-1.589171 -0.0056,-2.407835 0.246096,-1.932772 0.246096,-1.932772 2.246096,-3.932772 2.050217,-0.278473 2.050217,-0.278473 4.621826,-0.318848 0.970951,-0.01985 1.941902,-0.03971 2.942276,-0.06017 1.065526,-0.01157 2.131052,-0.02313 3.228867,-0.03505 1.670859,-0.02925 1.670859,-0.02925 3.375469,-0.0591 3.67295,-0.06105 7.34589,-0.107116 11.01906,-0.15184 2.52979,-0.03655 5.05958,-0.07341 7.58936,-0.110596 8.95199,-0.124907 17.90424,-0.211064 26.85663,-0.300842 z"
     fill="#c6e3c4"
     id="path1" />
  <path
     d="m 202.46354,9.1765129 c 4.7761,1.6417831 8.79383,4.2654671 13,7.0000001 -0.61255,3.104885 -1.61907,5.202833 -3.43359,7.785156 -0.72607,1.043174 -0.72607,1.043174 -1.4668,2.107422 -0.50724,0.716074 -1.01449,1.432149 -1.53711,2.169922 -0.99871,1.428376 -1.99741,2.856761 -2.99609,4.285156 -0.666,0.943715 -0.666,0.943715 -1.34546,1.906494 -1.0957,1.566758 -2.16043,3.155069 -3.22095,4.74585 1.44366,-0.0033 1.44366,-0.0033 2.91649,-0.0067 9.05012,-0.02023 18.10023,-0.03524 27.15036,-0.04508 4.65326,-0.0052 9.30651,-0.01233 13.95976,-0.02363 4.48684,-0.01083 8.97365,-0.01684 13.4605,-0.01944 1.7157,-0.0019 3.43139,-0.0055 5.14708,-0.01085 2.39466,-0.0072 4.78925,-0.0083 7.18393,-0.0078 0.71641,-0.0036 1.43282,-0.0072 2.17094,-0.01089 4.89689,0.01037 4.89689,0.01037 6.01094,1.12442 0.10949,1.333257 0.15121,2.672168 0.16495,4.009842 0.0112,0.864372 0.0225,1.728744 0.034,2.619308 0.007,0.956163 0.0146,1.912325 0.0222,2.897461 0.0115,1.001899 0.023,2.003798 0.0349,3.036057 0.0369,3.339756 0.0665,6.67953 0.0955,10.019363 0.0231,2.327207 0.0465,4.654412 0.0702,6.981613 0.0486,4.900392 0.0935,9.8008 0.1359,14.701249 0.0543,6.227506 0.11821,12.454866 0.18517,18.682234 0.0506,4.82096 0.0955,9.64195 0.13885,14.46297 0.0213,2.29172 0.0444,4.58342 0.0695,6.8751 0.11813,11.06135 0.15246,22.10483 -0.32073,33.15889 -0.0468,1.26119 -0.0468,1.26119 -0.0944,2.54786 -0.2954,5.76753 -0.2954,5.76753 -2.53593,8.00805 -2.0186,0.25613 -2.0186,0.25613 -4.55011,0.26502 -0.95856,0.008 -1.91712,0.0165 -2.90472,0.0251 -1.0555,-9.9e-4 -2.111,-0.002 -3.19849,-0.003 -1.10922,0.007 -2.21843,0.0137 -3.36127,0.0207 -2.4172,0.0136 -4.83444,0.0226 -7.25168,0.0277 -3.83507,0.008 -7.6699,0.0288 -11.50491,0.0525 -8.15957,0.0483 -16.31916,0.0812 -24.47882,0.11194 -9.41557,0.0356 -18.83101,0.0779 -28.24648,0.13594 -3.76089,0.0199 -7.5217,0.0284 -11.28263,0.0363 -11.2643,0.0503 -22.123,0.24262 -33.22089,2.32776 -1.79819,0.25786 -3.59752,0.50804 -5.39844,0.74609 -9.48042,1.31262 -18.87673,2.78037 -28.2539,4.70313 -3.18779,0.52448 -6.12466,0.65411 -9.34766,0.55078 -0.27328,0.56719 -0.54656,1.13438 -0.82812,1.71875 -4.605306,8.96501 -10.820766,17.13491 -16.609616,25.35547 -4.85879,6.90225 -9.64133,13.85353 -14.38696,20.83398 -0.75773,1.11279 -0.75773,1.11279 -1.53077,2.24805 -0.43981,0.64775 -0.87962,1.29551 -1.33276,1.96289 -1.39223,1.99622 -2.84113,3.94188 -4.31177,5.88086 -4.671056,-1.55702 -8.087055,-4.08447 -11.999998,-7 1.781682,-3.90412 4.172829,-7.3892 6.5625,-10.9375 0.444727,-0.66387 0.889453,-1.32773 1.347656,-2.01172 3.537962,-5.26674 7.148492,-10.48029 10.773442,-15.6875 4.19533,-6.05993 8.24584,-12.2192 12.3164,-18.36328 -1.62599,0.30487 -3.25197,0.60978 -4.87793,0.9148 -1.42764,0.26756 -2.85538,0.53464 -4.2832,0.80127 -3.77664,0.70594 -7.55146,1.41965 -11.32324,2.15112 -0.71543,0.13753 -1.430862,0.27505 -2.167972,0.41675 -2.006956,0.38611 -4.01326,0.77562 -6.019531,1.16528 -3.328125,0.55078 -3.328125,0.55078 -7.328125,0.55078 0,-2.64 0,-5.28 0,-8 1.8459,-0.28733 3.691824,-0.57451 5.537842,-0.86108 1.666662,-0.26326 3.332184,-0.53383 4.996582,-0.81104 4.923494,-0.81271 9.824884,-1.48867 14.789794,-1.99585 10.93861,-0.91107 10.93861,-0.91107 20.51953,-5.58984 1.65875,-2.52327 2.9566,-5.02453 4.17725,-7.78174 2.041976,-4.08907 4.851826,-7.73256 7.478996,-11.46045 1.14203,-1.6596 2.28142,-3.32102 3.41797,-4.98437 0.53673,-0.7844 1.07347,-1.56879 1.62647,-2.37696 1.77932,-2.61437 3.52726,-5.24852 5.26806,-7.88867 4.65565,-7.02815 9.51297,-13.91657 14.33643,-20.83008 6.02802,-8.62321 6.02802,-8.62321 11.77295,-17.435538 1.70201,-2.44424 3.4054,-4.47331 5.40625,-6.65625 13.02624,-15.139618 11.39383,-32.392436 10.67187,-51.328129 0.67467,0.04826 1.34933,0.09652 2.04444,0.14624 12.47053,1.147798 12.47053,1.147798 23.96093,-2.504638 3.18168,-3.440133 5.16363,-7.487747 7.08155,-11.729493 1.31663,-2.757186 3.0473,-5.141252 4.85058,-7.599609 0.52465,-0.746367 1.0493,-1.492734 1.58985,-2.261719 1.46371,-2.038332 2.95909,-4.049259 4.47265,-6.0507811 z"
     fill="#636fb3"
     id="path2" />
  <path
     d="m 64.463544,4.1765129 c 27.72,0 55.439996,0 83.999996,0 0.99,2.31 1.98,4.62 3,7.0000001 2.30144,1.071361 4.63402,2.079897 7,3 2.41704,6.362581 1.09861,14.668126 1.00635,21.381836 -0.006,3.356879 0.0685,6.700373 0.16447,10.055252 0.47885,18.380194 0.58522,31.979745 -12.24797,46.283611 -3.67019,4.35055 -6.64292,9.197958 -9.73535,13.966798 -1.1919,1.79697 -2.38572,3.59268 -3.58203,5.38672 -0.86866,1.30848 -1.73722,2.61703 -2.60547,3.92578 -0.33,-0.66 -0.66,-1.32 -1,-2 -1.21389,0.16226 -2.42779,0.32452 -3.67846,0.4917 -6.15327,0.67966 -12.2816,0.65168 -18.46607,0.64111 -1.24618,9.6e-4 -2.49235,0.002 -3.77629,0.003 -3.29478,8.5e-4 -6.589516,-0.003 -9.884286,-0.009 -3.32083,-0.003 -6.64164,0.004 -9.96247,0.01 -2.56315,-6.6e-4 -5.1263,-0.002 -7.68945,-0.004 -1.17851,0.002 -2.35702,0.004 -3.57124,0.006 -7.37146,-0.0205 -14.636447,-0.40818 -21.971728,-1.13895 -1.846704,-4.20961 -2.180855,-7.3882 -2,-12 -0.33,0 -0.66,0 -1,0 0,-26.729997 0,-53.459997 0,-80.999997 3.96,-0.66 7.92,-1.32 12,-2 0.474375,-1.381875 0.94875,-2.76375 1.4375,-4.1875 0.400254,-1.165957 0.400254,-1.165957 0.808598,-2.355469 0.74904,-2.4411731 1.25312,-4.9531131 1.7539,-7.4570311 z"
     fill="#e28d77"
     id="path3" />
  <path
     d="m 202.46354,9.1765129 c 4.7761,1.6417831 8.79383,4.2654671 13,7.0000001 -0.61146,3.083755 -1.60092,5.180789 -3.39844,7.75 -0.47953,0.690938 -0.95906,1.381875 -1.45312,2.09375 -0.50273,0.711563 -1.00547,1.423125 -1.52344,2.15625 -0.7425,1.067344 -0.7425,1.067344 -1.5,2.15625 -2.32196,3.327732 -4.68938,6.596255 -7.125,9.84375 18.81,0 37.62,0 57,0 -4.02244,2.011222 -5.55466,2.247579 -9.89062,2.230469 -1.1741,-0.0013 -2.34819,-0.0026 -3.55786,-0.0039 -1.2545,-0.01289 -2.509,-0.02578 -3.80152,-0.03906 -1.92332,-0.0097 -1.92332,-0.0097 -3.8855,-0.01953 -11.96735,-0.09457 -23.9143,-0.538571 -35.8645,-1.167969 -0.45053,0.923774 -0.45053,0.923774 -0.91015,1.866211 -1.17981,2.309915 -2.54662,4.30043 -4.08985,6.383789 -0.51562,0.706406 -1.03125,1.412813 -1.5625,2.140625 -0.47437,0.531094 -0.94875,1.062188 -1.4375,1.609375 -0.66,0 -1.32,0 -2,0 -0.33,0.99 -0.66,1.98 -1,3 -1.32914,1.337515 -2.66301,2.670331 -4,4 -1.12841,1.657694 -2.20975,3.348106 -3.25,5.0625 -2.40633,3.870607 -4.90785,7.591056 -7.625,11.25 -2.95863,4.007186 -5.71661,8.102396 -8.375,12.312499 -4.33786,6.8547 -8.99423,13.457568 -13.69531,20.066408 -6.10274,8.58379 -12.06211,17.27085 -17.86719,26.05859 -4.2631,6.43887 -8.71583,12.74309 -13.177,19.0459 -3.50738,4.97554 -6.83356,10.01091 -10.0105,15.2041 0.89977,-0.17523 1.79953,-0.35046 2.72656,-0.531 12.68429,-2.42835 25.42306,-4.46872 38.17725,-6.49219 2.82422,-0.44891 5.64773,-0.90209 8.47119,-1.35572 0.84909,-0.13338 1.69818,-0.26676 2.573,-0.40419 3.80994,-0.61396 7.55335,-1.30109 11.29321,-2.25791 3.18509,-0.81262 6.27808,-1.43688 9.52442,-1.92383 1.04599,-0.1588 2.09198,-0.3176 3.16967,-0.4812 1.09385,-0.16218 2.18771,-0.32436 3.3147,-0.49146 1.13575,-0.17185 2.27149,-0.3437 3.44165,-0.52075 5.44868,-0.82278 10.89963,-1.62983 16.35132,-2.43237 1.37334,-0.20315 1.37334,-0.20315 2.77441,-0.4104 1.70857,-0.25202 3.41754,-0.50134 5.12696,-0.74756 3.13158,-0.46004 6.04592,-0.94817 9.05566,-1.95142 1.3944,-0.0666 2.7917,-0.0854 4.1875,-0.0625 1.25813,0.0206 2.51625,0.0413 3.8125,0.0625 0,1.98 0,3.96 0,6 -4.67804,2.204 -9.41737,2.85383 -14.48047,3.62109 -0.92686,0.14543 -1.85372,0.29086 -2.80867,0.44069 -2.96528,0.46413 -5.93174,0.92019 -8.89836,1.37572 -2.90947,0.45207 -5.81867,0.90581 -8.72781,1.36002 -1.91537,0.29857 -3.83096,0.59576 -5.74677,0.89154 -4.51699,0.69991 -9.02814,1.42038 -13.53177,2.20205 -0.81173,0.14019 -1.62346,0.28039 -2.45979,0.42482 -1.49822,0.26101 -2.99562,0.52682 -4.49191,0.79868 -4.37278,0.76137 -8.43837,1.00294 -12.85445,0.88539 0,0.66 0,1.32 0,2 -1.89583,0.27083 -3.79166,0.54167 -5.6875,0.8125 -1.27488,0.18305 -2.54976,0.36609 -3.86328,0.55469 -3.16278,0.45234 -6.32704,0.89267 -9.49219,1.32812 -9.59896,1.33152 -19.11453,2.80702 -28.60937,4.75391 -3.18779,0.52448 -6.12466,0.65411 -9.34766,0.55078 -0.27328,0.56719 -0.54656,1.13438 -0.82812,1.71875 -4.605306,8.96501 -10.820766,17.13491 -16.609616,25.35547 -4.85879,6.90225 -9.64133,13.85353 -14.38696,20.83398 -0.75773,1.11279 -0.75773,1.11279 -1.53077,2.24805 -0.43981,0.64775 -0.87962,1.29551 -1.33276,1.96289 -1.39223,1.99622 -2.84113,3.94188 -4.31177,5.88086 -4.671056,-1.55702 -8.087055,-4.08447 -11.999998,-7 1.781682,-3.90412 4.172829,-7.3892 6.5625,-10.9375 0.444727,-0.66387 0.889453,-1.32773 1.347656,-2.01172 3.537962,-5.26674 7.148492,-10.48029 10.773442,-15.6875 4.19533,-6.05993 8.24584,-12.2192 12.3164,-18.36328 -1.62599,0.30487 -3.25197,0.60978 -4.87793,0.9148 -1.42764,0.26756 -2.85538,0.53464 -4.2832,0.80127 -3.77664,0.70594 -7.55146,1.41965 -11.32324,2.15112 -0.71543,0.13753 -1.430862,0.27505 -2.167972,0.41675 -2.006956,0.38611 -4.01326,0.77562 -6.019531,1.16528 -3.328125,0.55078 -3.328125,0.55078 -7.328125,0.55078 0,-2.64 0,-5.28 0,-8 1.8459,-0.28733 3.691824,-0.57451 5.537842,-0.86108 1.666662,-0.26326 3.332184,-0.53383 4.996582,-0.81104 4.923494,-0.81271 9.824884,-1.48867 14.789794,-1.99585 10.93861,-0.91107 10.93861,-0.91107 20.51953,-5.58984 1.65875,-2.52327 2.9566,-5.02453 4.17725,-7.78174 2.041976,-4.08907 4.851826,-7.73256 7.478996,-11.46045 1.14203,-1.6596 2.28142,-3.32102 3.41797,-4.98437 0.53673,-0.7844 1.07347,-1.56879 1.62647,-2.37696 1.77932,-2.61437 3.52726,-5.24852 5.26806,-7.88867 4.65565,-7.02815 9.51297,-13.91657 14.33643,-20.83008 6.02802,-8.62321 6.02802,-8.62321 11.77295,-17.435538 1.70201,-2.44424 3.4054,-4.47331 5.40625,-6.65625 13.02624,-15.139618 11.39383,-32.392436 10.67187,-51.328129 0.67467,0.04826 1.34933,0.09652 2.04444,0.14624 12.47053,1.147798 12.47053,1.147798 23.96093,-2.504638 3.18168,-3.440133 5.16363,-7.487747 7.08155,-11.729493 1.31663,-2.757186 3.0473,-5.141252 4.85058,-7.599609 0.52465,-0.746367 1.0493,-1.492734 1.58985,-2.261719 1.46371,-2.038332 2.95909,-4.049259 4.47265,-6.0507811 z"
     fill="#464746"
     id="path4" />
  <path
     d="m 202.46354,9.1765129 c 4.7761,1.6417831 8.79383,4.2654671 13,7.0000001 -0.61146,3.083755 -1.60092,5.180789 -3.39844,7.75 -0.47953,0.690938 -0.95906,1.381875 -1.45312,2.09375 -0.50273,0.711563 -1.00547,1.423125 -1.52344,2.15625 -0.495,0.711563 -0.99,1.423125 -1.5,2.15625 -2.32196,3.327732 -4.68938,6.596255 -7.125,9.84375 18.81,0 37.62,0 57,0 -4.02244,2.011222 -5.55466,2.247579 -9.89062,2.230469 -1.1741,-0.0013 -2.34819,-0.0026 -3.55786,-0.0039 -1.88175,-0.01934 -1.88175,-0.01934 -3.80152,-0.03906 -1.92332,-0.0097 -1.92332,-0.0097 -3.8855,-0.01953 -11.96735,-0.09457 -23.9143,-0.538571 -35.8645,-1.167969 -0.30035,0.61585 -0.6007,1.231699 -0.91015,1.866211 -1.17981,2.309915 -2.54662,4.30043 -4.08985,6.383789 -0.51562,0.706406 -1.03125,1.412813 -1.5625,2.140625 -0.47437,0.531094 -0.94875,1.062188 -1.4375,1.609375 -0.66,0 -1.32,0 -2,0 -0.33,0.99 -0.66,1.98 -1,3 -1.32914,1.337515 -2.66301,2.670331 -4,4 -1.12841,1.657694 -2.20975,3.348106 -3.25,5.0625 -2.40633,3.870607 -4.90785,7.591056 -7.625,11.25 -3.57559,4.827748 -6.82885,9.806229 -9.97998,14.917239 -2.08513,3.33 -4.24695,6.1137 -7.14502,8.770258 -0.61875,-0.350618 -1.2375,-0.701248 -1.875,-1.062498 -1.05187,-0.46406 -1.05187,-0.46406 -2.125,-0.9375 -0.99,0.495 -0.99,0.495 -2,1 0,-0.66 0,-1.32 0,-2 -0.99,0 -1.98,0 -3,0 -0.495,0.99 -0.495,0.99 -1,2 0.33,-2.31 0.66,-4.62 1,-7 -0.66,-0.33 -1.32,-0.66 -2,-1 0.78246,-0.73734 1.56492,-1.47469 2.3711,-2.23437 12.6041,-13.770196 10.10339,-32.27526 9.6289,-49.765629 1.012,0.07239 1.012,0.07239 2.04444,0.14624 12.47053,1.147798 12.47053,1.147798 23.96093,-2.504638 3.18168,-3.440133 5.16363,-7.487747 7.08155,-11.729493 1.31663,-2.757186 3.0473,-5.141252 4.85058,-7.599609 0.52465,-0.746367 1.0493,-1.492734 1.58985,-2.261719 1.46371,-2.038332 2.95909,-4.049259 4.47265,-6.0507811 z"
     fill="#49494a"
     id="path5" />
  <path
     d="m 163.46354,92.176512 c 0.66,0 1.32,0 2,0 -0.34547,0.68192 -0.69094,1.36383 -1.04687,2.06641 -1.18022,3.63254 -0.74259,6.107098 -0.20313,9.871088 0.57611,6.37743 0.57611,6.37743 -0.83594,9.34375 -1.53906,1.65625 -1.53906,1.65625 -4.91406,3.71875 -2.875,-0.125 -2.875,-0.125 -5,-1 -1.15427,9.52515 -1.3323,19.04333 -1.5625,28.625 -0.0433,1.68881 -0.0869,3.37761 -0.13086,5.06641 -0.10607,4.10277 -0.20761,8.20564 -0.30664,12.30859 -7.91092,2.34863 -15.78523,3.93966 -23.9375,5.1875 -1.66386,0.26587 -1.66386,0.26587 -3.36133,0.53711 -4.30457,0.67446 -8.33498,1.27539 -12.70117,1.27539 1.36436,-3.78353 3.09464,-6.818 5.41406,-10.09766 0.67418,-0.9597 1.34836,-1.91941 2.04297,-2.9082 0.71543,-1.00869 1.43086,-2.01738 2.16797,-3.05664 1.4722,-2.09446 2.94357,-4.1895 4.41406,-6.28516 0.6621,-0.93851 1.32419,-1.87703 2.00635,-2.84399 2.6332,-3.78337 5.17389,-7.62516 7.7124,-11.47241 5.30903,-7.96095 10.849,-15.77021 16.33594,-23.60889 1.70386,-2.43751 3.39977,-4.88033 5.09375,-7.32471 0.89531,-1.28031 1.7911,-2.560288 2.6875,-3.839838 0.39816,-0.57863 0.79632,-1.15725 1.20655,-1.75342 0.92263,-1.30661 1.91346,-2.5647 2.91845,-3.80908 z"
     fill="#e0eee0"
     id="path6" />
  <path
     d="m 109.09703,2.1400749 c 6.64539,-0.06476 13.29058,-0.113957 19.93624,-0.138794 2.02799,-0.0081 4.05597,-0.01923 6.08393,-0.03333 2.81606,-0.01769 5.6318,-0.0219 8.4479,-0.02191 0.8194,-0.0071 1.6388,-0.01427 2.48302,-0.02162 4.50295,0.01789 8.22274,0.394257 12.41542,2.25209 1.38226,2.76452 1.09526,5.046136 1.0625,8.1250001 -0.009,1.095703 -0.018,2.191406 -0.0273,3.320313 -0.0174,1.26457 -0.0174,1.26457 -0.0352,2.554687 -0.33,-1.32 -0.66,-2.64 -1,-4 -0.72187,-0.06187 -1.44375,-0.12375 -2.1875,-0.1875 -3.74443,-1.081724 -5.37455,-2.817308 -7.8125,-5.8125001 0,-1.32 0,-2.64 0,-4 -27.72,0 -55.439996,0 -83.999996,0 -0.33,2.31 -0.66,4.62 -1,7.0000001 -0.935647,3.271793 -2.034829,6.177819 -4.687498,8.4375 -3.445136,0.838006 -6.769478,0.594807 -10.3125,0.5625 0.107455,10.378959 0.220079,20.757847 0.339339,31.136678 0.05521,4.819082 0.108629,9.63817 0.157976,14.457316 0.04767,4.648992 0.100013,9.29791 0.155626,13.946814 0.02041,1.775424 0.03913,3.550868 0.05613,5.326328 0.02407,2.482923 0.05412,4.965703 0.0856,7.448533 0.0086,1.10591 0.0086,1.10591 0.01744,2.23417 0.04453,3.08127 0.205844,5.50405 1.187881,8.45016 0,2.33333 0,4.66667 0,7 0.33,0.66 0.66,1.32 1,2 2.969608,0.47443 2.969608,0.47443 6.5,0.625 1.260703,0.0735 2.521406,0.14695 3.820313,0.22266 4.237265,0.17543 8.439895,0.22544 12.679685,0.15234 -6.21115,3.45064 -12.923647,3.1889 -19.839842,2.48828 -7.796332,-0.64633 -15.487796,-0.34052 -23.285156,0.0117 -2.092885,0.0922 -4.185755,0.18198 -6.279022,0.26502 -1.872238,0.0745 -3.744136,0.15741 -5.615997,0.24084 -2.979981,-0.006 -2.979981,-0.006 -5.979981,-1.00586 0,-0.66 0,-1.32 0,-2 11.22,0 22.44,0 34,0 -0.01047,-3.26117 -0.02095,-6.52233 -0.03174,-9.88232 -0.03308,-10.75279 -0.05521,-21.505583 -0.07189,-32.258409 -0.01045,-6.521965 -0.02464,-13.043878 -0.04725,-19.565813 -0.02167,-6.289354 -0.03368,-12.578657 -0.03888,-18.868046 -0.0037,-2.404272 -0.01095,-4.808541 -0.02171,-7.212791 -0.01443,-3.35723 -0.01652,-6.714251 -0.01559,-10.071507 -0.0072,-1.002689 -0.01438,-2.005378 -0.02179,-3.038452 0.0027,-0.911478 0.0055,-1.822956 0.0083,-2.7620541 -0.0018,-0.794586 -0.0037,-1.589171 -0.0056,-2.407835 0.246096,-1.932772 0.246096,-1.932772 2.246096,-3.932772 2.050217,-0.278473 2.050217,-0.278473 4.621826,-0.318848 0.970951,-0.01985 1.941902,-0.03971 2.942276,-0.06017 1.065526,-0.01157 2.131052,-0.02313 3.228867,-0.03505 1.670859,-0.02925 1.670859,-0.02925 3.375469,-0.0591 3.67295,-0.06105 7.34589,-0.107116 11.01906,-0.15184 2.52979,-0.03655 5.05958,-0.07341 7.58936,-0.110596 8.95199,-0.124907 17.904238,-0.211064 26.856628,-0.300842 z"
     fill="#e5c2b4"
     id="path9" />
  <path
     d="m 200.46354,38.176513 c 10.15274,0.107336 20.3054,0.219935 30.458,0.339339 4.71377,0.05527 9.42754,0.108698 14.14137,0.157976 4.54524,0.04758 9.09041,0.09992 13.63556,0.155626 1.738,0.02045 3.47602,0.03916 5.21406,0.05613 2.42586,0.02398 4.85156,0.05404 7.27733,0.0856 0.72576,0.0058 1.45153,0.01151 2.19928,0.01744 4.96035,0.07383 4.96035,0.07383 6.0744,1.187881 0.10949,1.333257 0.15121,2.672168 0.16495,4.009842 0.0112,0.864372 0.0225,1.728744 0.034,2.619308 0.007,0.956163 0.0146,1.912325 0.0222,2.897461 0.0173,1.502848 0.0173,1.502848 0.0349,3.036057 0.0369,3.339756 0.0665,6.67953 0.0955,10.019363 0.0231,2.327207 0.0465,4.654412 0.0702,6.981613 0.0486,4.900392 0.0935,9.8008 0.1359,14.701249 0.0543,6.227506 0.11821,12.454866 0.18517,18.682232 0.0506,4.82096 0.0955,9.64195 0.13885,14.46297 0.0213,2.29172 0.0444,4.58342 0.0695,6.8751 0.11813,11.06135 0.15246,22.10483 -0.32073,33.15889 -0.0312,0.8408 -0.0623,1.68159 -0.0944,2.54786 -0.2954,5.76753 -0.2954,5.76753 -2.53593,8.00805 -2.60156,0.19531 -2.60156,0.19531 -5.625,0.125 -1.00289,-0.018 -2.00578,-0.0361 -3.03906,-0.0547 -0.77086,-0.0232 -1.54172,-0.0464 -2.33594,-0.0703 -0.3474,-2.91819 -0.50109,-5.13765 1.00781,-7.73437 1.30469,-1.64063 1.30469,-1.64063 3.99219,-4.26563 0.99,0 1.98,0 3,0 0,-0.66 0,-1.32 0,-2 1.32,0 2.64,0 4,0 -0.33,-31.35 -0.66,-62.699996 -1,-94.999995 -1.65,-0.33 -3.3,-0.66 -5,-1 -2.1875,-2 -2.1875,-2 -4,-4 -0.99,-0.495 -0.99,-0.495 -2,-1 -0.625,-2.5625 -0.625,-2.5625 -1,-5 -0.66,0 -1.32,0 -2,0 -0.495,-3.96 -0.495,-3.96 -1,-8 -20.46,0 -40.92,0 -62,0 0,-0.66 0,-1.32 0,-2 z"
     fill="#7a81ab"
     id="path11" />
  <path
     d="m 150.46354,170.17651 c 0.33,0 0.66,0 1,0 0.0926,10.62232 0.16374,21.24453 0.20725,31.86717 0.0209,4.93244 0.0492,9.86461 0.0945,14.79689 0.0434,4.7592 0.0674,9.51813 0.0778,14.27751 0.007,1.81652 0.0218,3.63303 0.0434,5.44945 0.029,2.54283 0.033,5.08456 0.0312,7.62754 0.0144,0.75238 0.0288,1.50475 0.0436,2.27993 -0.0269,3.40861 -0.24191,5.35111 -2.27606,8.13785 -3.75207,2.64085 -7.19603,2.69025 -11.70473,2.7041 -1.11446,0.006 -2.22893,0.0114 -3.37716,0.0173 -1.82741,0.002 -1.82741,0.002 -3.69173,0.003 -1.92985,0.007 -1.92985,0.007 -3.89868,0.0151 -3.52698,0.0131 -7.05394,0.0196 -10.58094,0.024 -2.20518,0.003 -4.41035,0.007 -6.61552,0.0115 -6.90433,0.0137 -13.808646,0.0233 -20.712976,0.0272 -7.96113,0.004 -15.92208,0.022 -23.88316,0.051 -6.159802,0.0216 -12.319556,0.0317 -18.479397,0.033 -3.676205,10e-4 -7.352249,0.007 -11.028414,0.0248 -4.103013,0.0196 -8.205667,0.0152 -12.308721,0.009 -1.818296,0.0138 -1.818296,0.0138 -3.673325,0.0279 -6.202708,-0.0308 -10.7916672,-0.37801 -16.2668612,-3.38437 0,-1.98 0,-3.96 0,-6 3.63,0 7.2600002,0 11.0000002,0 0,2.64 0,5.28 0,8 59.894998,-0.495 59.894998,-0.495 120.999994,-1 2.475,-4.455 2.475,-4.455 5,-9 4.29787,-2.14894 4.29787,-2.14894 8,-1 1.91386,-1.91385 1.17529,-5.37108 1.20532,-7.90649 0.01,-0.72191 0.0198,-1.44382 0.03,-2.18761 0.0317,-2.39698 0.0564,-4.79399 0.0811,-7.19106 0.0206,-1.65767 0.0416,-3.31534 0.063,-4.973 0.0553,-4.37132 0.10467,-8.74269 0.15285,-13.11409 0.0502,-4.45734 0.10587,-8.91461 0.16113,-13.37189 0.10768,-8.75189 0.2091,-17.50385 0.30664,-26.25586 z"
     fill="#eaf7ea"
     id="path12" />
  <path
     d="m 182.46354,38.176513 c 0.33,0.66 0.66,1.32 1,2 -0.66,0 -1.32,0 -2,0 -0.27763,0.579434 -0.55526,1.158867 -0.84131,1.755859 -1.11632,2.162082 -2.34137,4.13191 -3.69775,6.150391 -0.4946,0.738794 -0.98919,1.477588 -1.49878,2.23877 -0.78564,1.165715 -0.78564,1.165715 -1.58716,2.35498 -1.08215,1.611898 -2.16418,3.223877 -3.24609,4.835938 -0.53093,0.789873 -1.06187,1.579746 -1.60889,2.393554 -1.36186,2.03426 -2.71222,4.075301 -4.05517,6.122071 -0.71028,1.080234 -1.42055,2.160468 -2.15235,3.273437 -0.62262,0.951328 -1.24523,1.902656 -1.88672,2.882813 -0.4705,0.657421 -0.94101,1.314843 -1.42578,1.992187 -0.33,0 -0.66,0 -1,0 0,-11.55 0,-23.1 0,-35 7.92,-0.33 15.84,-0.66 24,-1 z"
     fill="#666db0"
     id="path13" />
  <path
     d="m 128.22468,2.0002739 c 2.06901,-0.0075 4.138,-0.01814 6.20697,-0.03204 2.90394,-0.01781 5.80759,-0.02203 8.71158,-0.02219 0.85752,-0.0071 1.71505,-0.01428 2.59856,-0.02164 4.60684,0.01745 8.43777,0.333634 12.72175,2.252106 1.38226,2.76452 1.09526,5.046136 1.0625,8.1250001 -0.009,1.095703 -0.018,2.191406 -0.0273,3.320313 -0.0116,0.843046 -0.0232,1.686093 -0.0352,2.554687 -0.495,-1.98 -0.495,-1.98 -1,-4 -0.72187,-0.06187 -1.44375,-0.12375 -2.1875,-0.1875 -3.74443,-1.081724 -5.37455,-2.817308 -7.8125,-5.8125001 0,-1.32 0,-2.64 0,-4 -27.72,0 -55.439996,0 -83.999996,0 -0.33,2.31 -0.66,4.62 -1,7.0000001 -0.935647,3.271793 -2.034829,6.177819 -4.687498,8.4375 -3.480482,0.846604 -6.734767,0.681758 -10.3125,0.5625 0,-1.65 0,-3.3 0,-5 2.64,-0.33 5.28,-0.66 8,-1 0.12375,-0.721875 0.2475,-1.44375 0.375,-2.1875 0.621001,-2.7945061 1.403168,-5.2250901 2.625,-7.8125001 3.189258,-1.594628 6.660328,-1.243335 10.167968,-1.316406 0.84701,-0.02092 1.69402,-0.04183 2.5667,-0.06339 2.81751,-0.06699 5.6351,-0.125636 8.45283,-0.182709 1.44455,-0.03077 1.44455,-0.03077 2.91828,-0.06216 14.8837,-0.311949 29.768436,-0.502175 44.655356,-0.551575 z"
     fill="#db9d8d"
     id="path16" />
  <path
     d="m 211.46354,162.17651 c -0.33,0.99 -0.66,1.98 -1,3 0.66,0.33 1.32,0.66 2,1 0.495,0.99 0.495,0.99 1,2 -25.245,0.495 -25.245,0.495 -51,1 -0.33,-0.66 -0.66,-1.32 -1,-2 12.2325,-2.09178 24.45626,-4.1076 36.8125,-5.3125 0.86972,-0.0881 1.73943,-0.17628 2.6355,-0.26709 0.80736,-0.073 1.61471,-0.14599 2.44653,-0.22119 0.69972,-0.0636 1.39944,-0.12713 2.12036,-0.19263 2.14975,-0.007 3.92919,0.3891 5.98511,0.99341 z"
     fill="#8c8fb7"
     id="path21" />
  <path
     d="m 200.46354,38.176513 c 10.15274,0.107336 20.3054,0.219935 30.458,0.339339 4.71377,0.05527 9.42754,0.108698 14.14137,0.157976 4.54524,0.04758 9.09041,0.09992 13.63556,0.155626 1.738,0.02045 3.47602,0.03916 5.21406,0.05613 2.42586,0.02398 4.85156,0.05404 7.27733,0.0856 0.72576,0.0058 1.45153,0.01151 2.19928,0.01744 4.96035,0.07383 4.96035,0.07383 6.0744,1.187881 0.0724,2.019642 0.0838,4.041671 0.0625,6.0625 -0.009,1.104727 -0.018,2.209453 -0.0273,3.347656 -0.0116,0.854649 -0.0232,1.709297 -0.0352,2.589844 -4.19769,-0.246923 -6.52655,-0.647435 -9.9375,-3.1875 -2.0625,-2.8125 -2.0625,-2.8125 -2.0625,-8.8125 -22.11,0 -44.22,0 -67,0 0,-0.66 0,-1.32 0,-2 z"
     fill="#b1b6d2"
     id="path22" />
  <path
     d="m 163.46354,92.176512 c 0.66,0 1.32,0 2,0 -0.34547,0.68192 -0.69094,1.36383 -1.04687,2.06641 -1.18022,3.63254 -0.74259,6.107098 -0.20313,9.871088 0.55407,6.35504 0.55407,6.35504 -0.73047,9.34375 -1.60512,1.82459 -2.76796,2.7987 -5.01953,3.71875 -2.95921,0.16411 -5.06743,-0.29214 -8,-1 0,-0.66 0,-1.32 0,-2 -0.66,-0.33 -1.32,-0.66 -2,-1 1.93652,-2.75069 3.87439,-5.50043 5.8125,-8.25 0.82081,-1.16596 0.82081,-1.16596 1.65821,-2.35547 0.53173,-0.7541 1.06347,-1.5082 1.61132,-2.28515 0.48703,-0.691258 0.97405,-1.382518 1.47583,-2.094728 0.47591,-0.66483 0.95181,-1.32967 1.44214,-2.01465 0.51394,-0.74475 1.02787,-1.48951 1.55738,-2.25683 0.47606,-0.57525 0.95213,-1.15049 1.44262,-1.74317 z"
     fill="#e1b0a4"
     id="path23" />
  <path
     d="m 47.463546,82.176513 c 0.33,0 0.66,0 1,0 0.06059,1.26457 0.121172,2.529141 0.183594,3.832029 0.08442,1.66017 0.169063,3.32033 0.253906,4.98047 0.03932,0.83338 0.07863,1.66676 0.119141,2.52539 0.04189,0.80244 0.08379,1.60488 0.126953,2.43164 0.05499,1.10759 0.05499,1.10759 0.111084,2.23755 0.153744,2.200418 0.153744,2.200418 1.205322,4.992918 0,2.33333 0,4.66667 0,7 0.495,0.99 0.495,0.99 1,2 2.969608,0.47443 2.969608,0.47443 6.5,0.625 1.260703,0.0735 2.521406,0.14695 3.820313,0.22266 4.237265,0.17543 8.439895,0.22544 12.679685,0.15234 -6.21115,3.45064 -12.923647,3.1889 -19.839842,2.48828 -7.796332,-0.64633 -15.487796,-0.34052 -23.285156,0.0117 -2.092885,0.0922 -4.185755,0.18198 -6.279022,0.26502 -1.872238,0.0745 -3.744136,0.15741 -5.615997,0.24084 -2.979981,-0.006 -2.979981,-0.006 -5.979981,-1.00586 0,-0.66 0,-1.32 0,-2 11.22,0 22.44,0 34,0 0,-10.23 0,-20.459998 0,-30.999997 z"
     fill="#e6d7c7"
     id="path24" />
  <path
     d="m 278.46354,142.17651 c 0.66,0 1.32,0 2,0 -0.1095,3.95892 -0.24021,7.91686 -0.375,11.875 -0.0309,1.12793 -0.0619,2.25586 -0.0937,3.41797 -0.058,1.61455 -0.058,1.61455 -0.11719,3.26172 -0.0314,0.99499 -0.0628,1.98999 -0.0952,3.01514 -0.31885,2.43017 -0.31885,2.43017 -2.31885,4.43017 -2.60156,0.19531 -2.60156,0.19531 -5.625,0.125 -1.50433,-0.0271 -1.50433,-0.0271 -3.03906,-0.0547 -0.77086,-0.0232 -1.54172,-0.0464 -2.33594,-0.0703 -0.3474,-2.91819 -0.50109,-5.13765 1.00781,-7.73437 1.30469,-1.64063 1.30469,-1.64063 3.99219,-4.26563 0.99,0 1.98,0 3,0 0,-0.66 0,-1.32 0,-2 1.32,0 2.64,0 4,0 0,-3.96 0,-7.92 0,-12 z"
     fill="#abaed2"
     id="path25" />
  <path
     d="m 3.4635458,136.17651 c 0.99,0.495 0.99,0.495 2,1 -0.0116,0.64067 -0.0232,1.28133 -0.03516,1.94141 -0.009,0.86496 -0.01805,1.72992 -0.02734,2.62109 -0.0116,0.84692 -0.0232,1.69383 -0.03516,2.56641 0.03997,2.95213 0.03997,2.95213 0.628906,6.15234 0.545423,4.32703 0.328567,8.32038 0.03125,12.65625 -0.666582,11.16526 -0.623791,22.30486 -0.525146,33.48413 0.0042,0.67807 0.0084,1.35615 0.01271,2.05477 0.01175,1.85962 0.02948,3.7192 0.04759,5.57878 -0.09766,2.94482 -0.09766,2.94482 -1.097656,5.94482 0.66,0 1.32,0 2,0 -0.07219,1.02481 -0.144375,2.04961 -0.21875,3.10547 -0.09384,1.36067 -0.187584,2.72135 -0.28125,4.08203 -0.0477,0.67354 -0.09539,1.34707 -0.144531,2.04102 -0.245707,3.59785 -0.411489,7.1652 -0.355469,10.77148 -0.66,0 -1.32,0 -2,0 0,-31.02 0,-62.04 0,-94 z"
     fill="#a1c89f"
     id="path26" />
  <path
     d="m 182.46354,38.176513 c 0.33,0.66 0.66,1.32 1,2 -7.59,0 -15.18,0 -23,0 0.33,2.64 0.66,5.28 1,8 0.33,0 0.66,0 1,0 0.049,0.926836 0.098,1.853672 0.14844,2.808594 0.0748,1.197539 0.14953,2.395078 0.22656,3.628906 0.10442,1.792441 0.10442,1.792441 0.21094,3.621094 0.13664,0.970664 0.27328,1.941328 0.41406,2.941406 0.66,0.33 1.32,0.66 2,1 0.66,-1.32 1.32,-2.64 2,-4 0.33,0.66 0.66,1.32 1,2 -1.32812,2.496094 -1.32812,2.496094 -3.25,5.4375 -0.93586,1.452129 -0.93586,1.452129 -1.89062,2.933594 -1.85938,2.628906 -1.85938,2.628906 -4.85938,5.628906 0,-11.55 0,-23.1 0,-35 7.92,-0.33 15.84,-0.66 24,-1 z"
     fill="#8d7ea3"
     id="path27" />
  <path
     d="m 84.463544,181.17651 c -1.44202,4.15151 -3.50104,7.29979 -6.125,10.8125 -1.08668,1.46373 -1.08668,1.46373 -2.19531,2.95703 -0.83145,1.10408 -0.83145,1.10408 -1.67969,2.23047 -0.33,-0.99 -0.66,-1.98 -1,-3 -0.66,0 -1.32,0 -2,0 0,-1.32 0,-2.64 0,-4 -0.99,0 -1.98,0 -3,0 -0.12375,-0.80437 -0.2475,-1.60875 -0.375,-2.4375 -0.30937,-1.26844 -0.30937,-1.26844 -0.625,-2.5625 -0.66,-0.33 -1.32,-0.66 -2,-1 2.41576,-0.50478 4.83245,-1.00398 7.25,-1.5 0.68192,-0.14308 1.36383,-0.28617 2.06641,-0.43359 3.32992,-0.67892 6.26692,-1.06641 9.68359,-1.06641 z m -10,10 c -0.66,0.66 -1.32,1.32 -2,2 0.99,0 1.98,0 3,0 0.33,-0.66 0.66,-1.32 1,-2 -0.66,0 -1.32,0 -2,0 z"
     fill="#e3ede2"
     id="path30" />
  <path
     d="m 278.46354,150.17651 c 0,1.32 0,2.64 0,4 -1.32,0 -2.64,0 -4,0 0,0.66 0,1.32 0,2 -1.66279,1.00643 -3.32983,2.00586 -5,3 -2.12508,3.18762 -2.50201,5.26512 -3,9 -1.98,0 -3.96,0 -6,0 -0.37027,-6.54156 -0.37027,-6.54156 1.3125,-8.625 0.83531,-0.68062 0.83531,-0.68062 1.6875,-1.375 0.45375,-0.825 0.9075,-1.65 1.375,-2.5 3.52608,-5.42474 7.43248,-5.86427 13.625,-5.5 z"
     fill="#8386c1"
     id="path31" />
  <path
     d="m 134.46354,2.1765129 c 2.87526,-0.05425 5.74948,-0.09379 8.625,-0.125 0.80824,-0.01676 1.61649,-0.03352 2.44922,-0.05078 4.6891,-0.03812 8.56674,0.209401 12.92578,2.175781 1.38226,2.76452 1.09526,5.046136 1.0625,8.1250001 -0.009,1.095703 -0.018,2.191406 -0.0273,3.320313 -0.0116,0.843046 -0.0232,1.686093 -0.0352,2.554687 -0.33,-1.32 -0.66,-2.64 -1,-4 -1.08281,-0.09281 -1.08281,-0.09281 -2.1875,-0.1875 -3.74443,-1.081724 -5.37455,-2.817308 -7.8125,-5.8125001 0,-1.32 0,-2.64 0,-4 -6.93,-0.495 -6.93,-0.495 -14,-1 0,-0.33 0,-0.66 0,-1.000001 z"
     fill="#faf2ec"
     id="path32" />
  <path
     d="m 74.463544,221.17651 c 0.99,1.32 1.98,2.64 3,4 -2.334,5.72892 -6.76274,9.0275 -12,12 -0.66,0.66 -1.32,1.32 -2,2 0,-0.66 0,-1.32 0,-2 -0.66,0 -1.319998,0 -1.999998,0 0,-0.66 0,-1.32 0,-2 -2.109517,-1.1301 -3.729449,-1.96817 -6.125,-2.25 -0.61875,-0.2475 -1.2375,-0.495 -1.875,-0.75 -1.25,-3.0625 -1.25,-3.0625 -2,-6 0.66,-0.66 1.32,-1.32 2,-2 0.33,0.66 0.66,1.32 1,2 -0.33,0.66 -0.66,1.32 -1,2 0.53625,0.2475 1.0725,0.495 1.625,0.75 2.375,1.25 2.375,1.25 5.5,3.375 2.582138,2.05709 2.582138,2.05709 4.874998,1.875 1.62677,-2.13771 3.1398,-4.26755 4.625,-6.5 0.42024,-0.62004 0.84047,-1.24008 1.27344,-1.87891 1.03993,-1.53626 2.07153,-3.07816 3.10156,-4.62109 z"
     fill="#adcea9"
     id="path34" />
  <path
     d="m 199.46354,38.176513 c 0.33,0.66 0.66,1.32 1,2 18.81,0 37.62,0 57,0 -4.02244,2.011222 -5.55466,2.247579 -9.89062,2.230469 -1.1741,-0.0013 -2.34819,-0.0026 -3.55786,-0.0039 -1.88175,-0.01934 -1.88175,-0.01934 -3.80152,-0.03906 -1.92332,-0.0097 -1.92332,-0.0097 -3.8855,-0.01953 -11.96735,-0.09457 -23.9143,-0.538571 -35.8645,-1.167969 -0.2989,0.61585 -0.5978,1.231699 -0.90576,1.866211 -1.19971,2.339454 -2.62068,4.298719 -4.21924,6.383789 -0.53883,0.706406 -1.07765,1.412813 -1.63281,2.140625 -0.40992,0.531094 -0.81984,1.062188 -1.24219,1.609375 -0.66,-0.33 -1.32,-0.66 -2,-1 0.33,-0.66 0.66,-1.32 1,-2 0.66,0 1.32,0 2,0 0.30938,-0.94875 0.61875,-1.8975 0.9375,-2.875 1.0625,-3.125 1.0625,-3.125 2.0625,-5.125 0.66,0 1.32,0 2,0 0.33,-1.32 0.66,-2.64 1,-4 z"
     fill="#404f91"
     id="path35" />
  <path
     d="m 145.46354,4.1765129 c 0.99,0 1.98,0 3,0 0.35063,1.093125 0.70125,2.18625 1.0625,3.3125 1.44853,3.4848561 1.83758,3.6409841 5.5625,5.3750001 1.11375,0.433125 2.2275,0.86625 3.375,1.3125 1.17184,2.943607 1.1168,5.845735 1.09766,8.984375 -0.003,0.93457 -0.006,1.869141 -0.01,2.832031 -0.008,0.968086 -0.0168,1.936172 -0.0254,2.933594 -0.005,0.983555 -0.009,1.967109 -0.0137,2.980469 -0.0118,2.423239 -0.0282,4.846354 -0.0488,7.269531 -0.33,0 -0.66,0 -1,0 -0.33,-6.27 -0.66,-12.54 -1,-19 -2.31,-0.66 -4.62,-1.32 -7,-2 0,-0.99 0,-1.98 0,-3 -0.64453,-0.234609 -1.28906,-0.469219 -1.95312,-0.710937 -2.04688,-1.289063 -2.04688,-1.289063 -2.65625,-3.453125 -0.0464,-0.81211 -0.0928,-1.6242191 -0.14063,-2.4609381 -0.0567,-0.817266 -0.11344,-1.634531 -0.17187,-2.476562 -0.0258,-0.626485 -0.0516,-1.252969 -0.0781,-1.898438 z"
     fill="#e1a694"
     id="path36" />
  <path
     d="m 211.46354,162.17651 c -0.33,0.99 -0.66,1.98 -1,3 0.66,0.33 1.32,0.66 2,1 -1,1 -1,1 -2.76587,1.11353 -0.74886,-0.005 -1.49773,-0.0105 -2.26928,-0.0159 -0.80889,-0.003 -1.61778,-0.006 -2.45118,-0.01 -0.85013,-0.008 -1.70027,-0.0168 -2.57617,-0.0254 -0.854,-0.005 -1.70801,-0.009 -2.58789,-0.0137 -2.11656,-0.0118 -4.23309,-0.0298 -6.34961,-0.0488 -0.33,-1.65 -0.66,-3.3 -1,-5 2.41627,-0.19534 4.83265,-0.38153 7.25,-0.5625 0.68192,-0.0561 1.36383,-0.11215 2.06641,-0.16992 3.42565,-0.24944 6.4106,-0.40638 9.68359,0.73242 z"
     fill="#7d81b7"
     id="path40" />
  <path
     d="m 147.46354,85.176513 c 0.66,0 1.32,0 2,0 -0.48491,4.795259 -2.79989,7.892969 -5.625,11.624999 -0.90855,1.23268 -1.81478,2.46708 -2.71875,3.703128 -0.44859,0.61295 -0.89719,1.22589 -1.35937,1.85742 -2.96121,4.14301 -5.62582,8.48061 -8.29688,12.81445 -0.33,-0.66 -0.66,-1.32 -1,-2 -0.66,0 -1.32,0 -2,0 0,-0.66 0,-1.32 0,-2 1.32,0 2.64,0 4,0 0.18176,-0.77086 0.36352,-1.54172 0.55078,-2.33594 0.25137,-1.00289 0.50274,-2.00578 0.76172,-3.03906 0.24363,-0.99773 0.48727,-1.99547 0.73828,-3.02344 0.94922,-2.60156 0.94922,-2.60156 3.94922,-4.601558 3.12017,-3.53619 5.49367,-7.3633 7.85156,-11.42578 0.37899,-0.51949 0.75797,-1.03898 1.14844,-1.574219 z"
     fill="#dbbeb2"
     id="path41" />
  <path
     d="m 235.46354,145.17651 c 2.28639,2.47692 2.97638,3.70466 3.25,7.125 -0.25,2.875 -0.25,2.875 -1.25,4.875 -3.28519,1.09507 -5.73663,1.09961 -9.1875,1.0625 -1.63002,-0.0135 -1.63002,-0.0135 -3.29297,-0.0273 -0.83144,-0.0116 -1.66289,-0.0232 -2.51953,-0.0352 0,-0.33 0,-0.66 0,-1 4.29,-0.66 8.58,-1.32 13,-2 0,-1.98 0,-3.96 0,-6 -4.62,0.66 -9.24,1.32 -14,2 3,-4 3,-4 4.9375,-4.57422 0.68063,-0.0374 1.36125,-0.0748 2.0625,-0.11328 2.65185,-0.17578 4.42145,-0.45298 7,-1.3125 z"
     fill="#5b6395"
     id="path42" />
  <path
     d="m 3.4635458,136.17651 c 0.99,0.495 0.99,0.495 2,1 -0.0116,0.64067 -0.0232,1.28133 -0.03516,1.94141 -0.009,0.86496 -0.01805,1.72992 -0.02734,2.62109 -0.0116,0.84692 -0.0232,1.69383 -0.03516,2.56641 0.03951,2.94629 0.03951,2.94629 0.625,6.11718 0.566954,4.50284 0.383058,8.73742 0.09766,13.25391 -0.04383,0.81598 -0.08766,1.63195 -0.132812,2.47266 -0.273085,4.72588 -0.750687,9.35211 -1.492188,14.02734 -0.33,0 -0.66,0 -1,0 0,-14.52 0,-29.04 0,-44 z"
     fill="#b0d0ac"
     id="path43" />
  <path
     d="m 207.46354,151.17651 c 0,0.66 0,1.32 0,2 -30.05596,6.17301 -30.05596,6.17301 -38,6 0,-0.66 0,-1.32 0,-2 4.95219,-1.03672 9.93791,-1.7596 14.94141,-2.5 2.94001,-0.4216 2.94001,-0.4216 5.27344,-1.125 1.78515,-0.375 1.78515,-0.375 4.78515,0.625 0,-0.66 0,-1.32 0,-2 4.38586,-0.70174 8.55791,-1.10834 13,-1 z"
     fill="#8e90b8"
     id="path44" />
  <path
     d="m 235.46354,149.17651 c 0,1.98 0,3.96 0,6 -4.38246,2.05725 -8.56094,2.60696 -13.3125,3.125 -0.74056,0.0864 -1.48113,0.17274 -2.24414,0.26172 -1.81374,0.21063 -3.62846,0.41281 -5.44336,0.61328 0,-0.66 0,-1.32 0,-2 1.98,0 3.96,0 6,0 0,-0.66 0,-1.32 0,-2 1.76896,-0.3634 3.54027,-0.71541 5.3125,-1.0625 0.98613,-0.19723 1.97227,-0.39445 2.98828,-0.59766 2.69922,-0.33984 2.69922,-0.33984 5.69922,0.66016 -0.33,-0.99 -0.66,-1.98 -1,-3 -1.70156,0.2475 -1.70156,0.2475 -3.4375,0.5 -4.5331,0.57576 -8.99997,0.59505 -13.5625,0.5 0,-0.33 0,-0.66 0,-1 6.43029,-1.32388 12.42949,-2.24794 19,-2 z"
     fill="#44475a"
     id="path45" />
  <path
     d="m 163.46354,92.176512 c 0.66,0 1.32,0 2,0 -0.34289,0.67805 -0.68578,1.35609 -1.03906,2.05469 -1.51882,4.65525 -0.4766,8.979578 0.14062,13.765618 -0.10156,3.17969 -0.10156,3.17969 -2.07812,5.10938 -1.0016,0.5298 -1.0016,0.5298 -2.02344,1.07031 -0.0735,-1.26457 -0.0735,-1.26457 -0.14844,-2.55469 -0.0748,-1.0957 -0.14953,-2.1914 -0.22656,-3.32031 -0.0696,-1.09055 -0.13922,-2.18109 -0.21094,-3.30469 -0.14659,-2.95077 -0.14659,-2.95077 -2.41406,-4.82031 0.95044,-1.338968 1.91059,-2.671048 2.875,-3.999998 0.53367,-0.7425 1.06735,-1.485 1.61719,-2.25 0.49758,-0.5775 0.99516,-1.155 1.50781,-1.75 z"
     fill="#9fa2d0"
     id="path46" />
  <path
     d="m 13.463546,113.17651 c 11.22,0 22.44,0 34,0 0,0.66 0,1.32 0,2 -4.359713,0.16776 -8.719614,0.3283 -13.079834,0.48218 -1.483145,0.0534 -2.966222,0.10868 -4.449219,0.16601 -2.13209,0.0821 -4.264331,0.15709 -6.396728,0.23072 -1.28302,0.0471 -2.56604,0.0943 -3.88794,0.14282 -3.186279,-0.0217 -3.186279,-0.0217 -6.186279,-1.02173 0,-0.66 0,-1.32 0,-2 z"
     fill="#f0f6f0"
     id="path48" />
  <path
     d="m 3.4635458,242.17651 c 4.29,1.32 8.5800002,2.64 13.0000002,4 0.33,3.3 0.66,6.6 1,10 -0.99,0 -1.98,0 -3,0 0,-2.64 0,-5.28 0,-8 -3.63,0 -7.2600002,0 -11.0000002,0 0,-1.98 0,-3.96 0,-6 z"
     fill="#cce5ca"
     id="path50" />
  <path
     d="m 248.45182,165.51635 c 0.70577,0.0935 1.41153,0.18692 2.13868,0.28321 0.72123,0.10377 1.44246,0.20754 2.18554,0.31445 0.74057,0.0999 1.48113,0.19981 2.24414,0.30274 1.81546,0.24596 3.62956,0.50186 5.44336,0.75976 0,0.33 0,0.66 0,1 -15.51,0 -31.02,0 -47,0 0.33,-0.66 0.66,-1.32 1,-2 1.09671,0.008 1.09671,0.008 2.21558,0.0159 3.32396,0.0208 6.64792,0.0338 9.97192,0.0466 1.15049,0.008 2.30098,0.0168 3.48633,0.0254 1.11182,0.003 2.22363,0.006 3.36914,0.01 1.53177,0.008 1.53177,0.008 3.09448,0.0159 2.84002,-0.0371 2.84002,-0.0371 5.4856,-0.64087 2.34251,-0.46581 4.01646,-0.45744 6.36523,-0.13282 z"
     fill="#6c72a5"
     id="path51" />
  <path
     d="m 278.46354,153.17651 c -1.32,0.33 -2.64,0.66 -4,1 0,0.66 0,1.32 0,2 -1.66279,1.00643 -3.32983,2.00586 -5,3 -2.12508,3.18762 -2.50201,5.26512 -3,9 -1.98,0 -3.96,0 -6,0 0.66,-0.33 1.32,-0.66 2,-1 0.10313,-1.0725 0.20625,-2.145 0.3125,-3.25 0.83425,-4.55045 2.11152,-5.90547 5.6875,-8.75 3.45351,-1.81309 6.1208,-2.22167 10,-2 z"
     fill="#8d92c3"
     id="path52" />
  <path
     d="m 68.463544,3.1765129 c 0,0.33 0,0.66 0,1 -1.98,0 -3.96,0 -5.999998,0 0.04125,0.9075 0.0825,1.815 0.125,2.75 -0.122201,3.1772251 -0.368971,4.6621681 -2.125,7.2500001 -3.2038,2.135867 -4.0194,2.231322 -7.6875,2.125 -1.212363,-0.02707 -1.212363,-0.02707 -2.449219,-0.05469 -0.922324,-0.03481 -0.922324,-0.03481 -1.863281,-0.07031 3.088097,-1.764627 4.233121,-2 8,-2 0.12375,-0.721875 0.2475,-1.44375 0.375,-2.1875 0.621001,-2.7945061 1.403168,-5.2250901 2.625,-7.8125001 2.956645,-1.478323 5.742298,-1.060328 8.999998,-1 z"
     fill="#e8b6a5"
     id="path55" />
  <path
     d="m 150.46354,116.17651 c 0.99,0 1.98,0 3,0 -0.1534,1.26586 -0.30679,2.53172 -0.46484,3.83594 -0.82385,8.23846 -0.89893,16.51716 -1.09766,24.78906 -0.0433,1.68881 -0.0869,3.37761 -0.13086,5.06641 -0.10607,4.10277 -0.20761,8.20564 -0.30664,12.30859 -0.33,0 -0.66,0 -1,0 0,-15.18 0,-30.36 0,-46 z"
     fill="#cbd3dd"
     id="path57" />
  <path
     d="m 144.46354,3.1765129 c 2.75,-0.375 2.75,-0.375 6,0 1.40114,1.953099 2.7334,3.957088 4,6 2.60437,1.4119061 2.60437,1.4119061 5,2.0000001 0,2.31 0,4.62 0,7 -0.33,-1.32 -0.66,-2.64 -1,-4 -1.08281,-0.09281 -1.08281,-0.09281 -2.1875,-0.1875 -3.74443,-1.081724 -5.37455,-2.817308 -7.8125,-5.8125001 0,-1.32 0,-2.64 0,-4 -1.32,-0.33 -2.64,-0.66 -4,-1 z"
     fill="#efd0c4"
     id="path58" />
  <path
     d="m 51.408859,2.9812009 c 2.018229,0.0651 4.036458,0.130208 6.054687,0.195312 -0.66,1.65 -1.32,3.3 -2,5 -0.66,0 -1.32,0 -2,0 0,0.66 0,1.32 0,2.0000001 -1.65,0 -3.3,0 -5,0 -0.33,0.99 -0.66,1.98 -1,3 -0.195312,-6.0546871 -0.195312,-6.0546871 0,-8.0000001 2,-2 2,-2 3.945313,-2.195312 z"
     fill="#f6ebe7"
     id="path59" />
  <path
     d="m 158.46354,101.17651 c 0.66,0.33 1.32,0.66 2,1 0.0539,2.12473 0.0927,4.24984 0.125,6.375 0.0232,1.18336 0.0464,2.36672 0.0703,3.58594 -0.19531,3.03906 -0.19531,3.03906 -2.19531,5.03906 -2.72869,-0.0329 -5.29666,-0.56398 -8,-1 0,-0.66 0,-1.32 0,-2 -0.66,-0.33 -1.32,-0.66 -2,-1 0.99,-0.99 1.98,-1.98 3,-3 0,1.32 0,2.64 0,4 1.98,-0.66 3.96,-1.32 6,-2 0.33,-3.63 0.66,-7.26 1,-11 z"
     fill="#cbaeb2"
     id="path60" />
  <path
     d="m 187.46354,56.176513 c 0.58521,1.861328 0.58521,1.861328 1,4 -1.36328,2.21875 -1.36328,2.21875 -3.3125,4.5 -2.68289,3.169037 -2.68289,3.169037 -4.79297,6.71875 -0.89453,1.78125 -0.89453,1.78125 -2.89453,2.78125 -0.43312,1.2375 -0.43312,1.2375 -0.875,2.5 -0.37125,0.825 -0.7425,1.65 -1.125,2.5 -2.07031,0.65625 -2.07031,0.65625 -4,1 4.67448,-7.011719 9.34896,-14.023437 14.02344,-21.035156 0.9784,-1.467598 0.9784,-1.467598 1.97656,-2.964844 z"
     fill="#6a6f9d"
     id="path64" />
  <path
     d="m 185.46354,165.17651 c 0.99,0.99 1.98,1.98 3,3 -8.58,0.33 -17.16,0.66 -26,1 -0.33,-0.66 -0.66,-1.32 -1,-2 17.32383,-2.55635 17.32383,-2.55635 24,-2 z"
     fill="#a0a1b8"
     id="path66" />
  <path
     d="m 279.46354,160.17651 c 0.125,2.875 0.125,2.875 0,6 -2,2 -2,2 -5.125,2.125 -1.42312,-0.0619 -1.42312,-0.0619 -2.875,-0.125 0.36513,-2.70194 0.69869,-4.58391 2.3125,-6.8125 1.6875,-1.1875 1.6875,-1.1875 5.6875,-1.1875 z"
     fill="#e7e9f3"
     id="path67" />
  <path
     d="m 154.46354,22.176513 c 1.32,0 2.64,0 4,0 0,10.23 0,20.46 0,31 -0.33,0 -0.66,0 -1,0 -0.92972,-9.695709 -1.11237,-19.273425 -1,-29 -0.66,0 -1.32,0 -2,0 0,-0.66 0,-1.32 0,-2 z"
     fill="#cd7263"
     id="path69" />
  <path
     d="m 57.463546,3.1765129 c 1.32,0.33 2.64,0.66 4,1 -0.66,0 -1.32,0 -2,0 -0.0825,0.7425 -0.165,1.485 -0.25,2.25 -0.9253,3.392767 -1.915081,4.6812751 -4.75,6.7500001 -3.25,0.25 -3.25,0.25 -6,0 0,-0.99 0,-1.98 0,-3 1.65,0 3.3,0 5,0 0,-0.6600001 0,-1.3200001 0,-2.0000001 0.978502,-1.021045 1.979804,-2.020612 3,-3 0.33,-0.66 0.66,-1.32 1,-2 z"
     fill="#f1d3c9"
     id="path70" />
  <path
     d="m 3.4635458,236.17651 c 0.37125,0.45375 0.7425,0.9075 1.125,1.375 2.417647,2.0953 4.829306,2.74513 7.8750002,3.625 0.33,1.65 0.66,3.3 1,5 -4.9500002,-1.98 -4.9500002,-1.98 -10.0000002,-4 0,-1.98 0,-3.96 0,-6 z"
     fill="#b8dbb5"
     id="path72" />
  <path
     d="m 268.46354,53.176513 c 1.64666,0.113563 3.29236,0.241174 4.9375,0.375 0.91653,0.06961 1.83305,0.139219 2.77735,0.210938 1.13115,0.204961 1.13115,0.204961 2.28515,0.414062 1.60726,3.214513 1.05748,6.436125 1,10 -0.33,0 -0.66,0 -1,0 -0.33,-1.65 -0.66,-3.3 -1,-5 -1.11375,-0.09281 -1.11375,-0.09281 -2.25,-0.1875 -3.56857,-1.054351 -4.67245,-2.811598 -6.75,-5.8125 z"
     fill="#787fb3"
     id="path73" />
  <path
     d="m 270.46354,39.176513 c 6.15235,-0.09766 6.15235,-0.09766 8,0 1,1 1,1 1.09766,2.847656 -0.0488,3.076172 -0.0488,3.076172 -0.0977,6.152344 -0.33,-0.66 -0.66,-1.32 -1,-2 -1.32,0 -2.64,0 -4,0 -0.33,-1.98 -0.66,-3.96 -1,-6 -0.99,-0.33 -1.98,-0.66 -3,-1 z"
     fill="#e5e7f1"
     id="path74" />
  <path
     d="m 146.46354,116.17651 c 0.99,0.99 1.98,1.98 3,3 -0.33,0.66 -0.66,1.32 -1,2 -0.66,0 -1.32,0 -2,0 0,1.65 0,3.3 0,5 -1.65,0.33 -3.3,0.66 -5,1 -0.33,-0.66 -0.66,-1.32 -1,-2 1.98,-2.97 3.96,-5.94 6,-9 z"
     fill="#c8dcc7"
     id="path75" />
  <path
     d="m 74.463544,221.17651 c 0.99,1.32 1.98,2.64 3,4 -1.49097,3.79521 -3.75701,5.61043 -7,8 -0.33,-0.66 -0.66,-1.32 -1,-2 1.38543,-3.62849 2.84352,-6.76527 5,-10 z"
     fill="#bad7b7"
     id="path76" />
  <path
     d="m 278.46354,156.17651 c 0.33,1.32 0.66,2.64 1,4 -0.78375,0.28875 -1.5675,0.5775 -2.375,0.875 -2.72171,0.97412 -2.72171,0.97412 -4.625,3.125 -0.64252,2.06874 -0.64252,2.06874 -1,4 -0.66,0 -1.32,0 -2,0 -0.375,-2.6875 -0.375,-2.6875 0,-6 2.90528,-2.90528 5.09508,-4.69836 9,-6 z"
     fill="#c6c9e3"
     id="path77" />
  <path
     d="m 181.46354,40.176513 c 0.66,0 1.32,0 2,0 0,4 0,4 -1.34765,5.527344 -0.54528,0.485976 -1.09055,0.971953 -1.65235,1.472656 -0.83335,1.172961 -1.64596,2.360924 -2.4375,3.5625 -1.88846,2.712513 -3.32878,4.359595 -6.5625,5.4375 1.69081,-3.628191 3.80396,-6.907495 6,-10.25 0.70125,-1.077656 1.4025,-2.155312 2.125,-3.265625 0.61875,-0.819844 1.2375,-1.639687 1.875,-2.484375 z"
     fill="#44485f"
     id="path78" />
  <path
     d="m 199.46354,38.176513 c 0.33,0.66 0.66,1.32 1,2 2.64,0 5.28,0 8,0 0,0.33 0,0.66 0,1 -2.64,0 -5.28,0 -8,0 -0.26554,0.572344 -0.53109,1.144688 -0.80469,1.734375 -1.25208,2.373226 -2.68894,4.387758 -4.32031,6.515625 -0.53883,0.706406 -1.07765,1.412813 -1.63281,2.140625 -0.40992,0.531094 -0.81984,1.062188 -1.24219,1.609375 -0.66,-0.33 -1.32,-0.66 -2,-1 0.33,-0.66 0.66,-1.32 1,-2 0.66,0 1.32,0 2,0 0.30938,-0.94875 0.61875,-1.8975 0.9375,-2.875 1.0625,-3.125 1.0625,-3.125 2.0625,-5.125 0.66,0 1.32,0 2,0 0.33,-1.32 0.66,-2.64 1,-4 z"
     fill="#545d90"
     id="path79" />
  <path
     d="m 227.46354,158.17651 c -8.70863,4.51202 -18.39935,4.27474 -28,4 0,-0.33 0,-0.66 0,-1 2.97788,-0.50893 5.95693,-1.00731 8.9375,-1.5 0.8308,-0.14308 1.6616,-0.28617 2.51758,-0.43359 5.59096,-0.9137 10.87986,-1.20361 16.54492,-1.06641 z"
     fill="#6e74a3"
     id="path81" />
  <path
     d="m 171.46354,80.176513 c 0.66,0 1.32,0 2,0 -0.18562,0.5775 -0.37125,1.155 -0.5625,1.75 -0.47773,2.456925 -0.19479,3.893979 0.5625,6.249999 -0.76312,0.0825 -1.52625,0.165 -2.3125,0.25 -3.21123,0.89616 -3.98124,1.96611 -5.6875,4.75 -0.66,-0.66 -1.32,-1.32 -2,-2 1.28368,-1.83894 2.57717,-3.67103 3.875,-5.5 1.07895,-1.531405 1.07895,-1.531405 2.17969,-3.093749 0.64195,-0.794062 1.28391,-1.588125 1.94531,-2.40625 z"
     fill="#8284b0"
     id="path82" />
  <path
     d="m 160.46354,40.176513 c 6.93,0 13.86,0 21,0 -1.61738,3.234755 -2.47629,4.70572 -5,7 -1.125,-3.75 -1.125,-3.75 0,-6 -5.28,0 -10.56,0 -16,0 0,-0.33 0,-0.66 0,-1 z"
     fill="#5c6096"
     id="path84" />
  <path
     d="m 147.46354,85.176513 c 0.66,0 1.32,0 2,0 -0.54791,4.282949 -2.02433,6.851359 -4.5625,10.312499 -0.64066,0.88301 -1.28133,1.76602 -1.9414,2.67578 -0.49372,0.66387 -0.98743,1.32774 -1.4961,2.011718 -0.70703,-1.640618 -0.70703,-1.640618 -1,-3.999998 1.36328,-2.79687 1.36328,-2.79687 3.3125,-5.75 0.63551,-0.98484 1.27102,-1.96969 1.92578,-2.98437 0.58137,-0.74766 1.16274,-1.49532 1.76172,-2.265629 z"
     fill="#d7a696"
     id="path86" />
  <path
     d="m 157.46354,53.176513 c 0.33,0 0.66,0 1,0 0.11655,3.562223 0.18737,7.123953 0.25,10.6875 0.0503,1.511104 0.0503,1.511104 0.10156,3.052734 0.0996,7.541985 0.0996,7.541985 -2.36718,11.466797 -0.65485,0.59168 -1.30969,1.18336 -1.98438,1.792969 -0.66,-1.32 -1.32,-2.64 -2,-4 0.99,0 1.98,0 3,0 0,-0.66 0,-1.32 0,-2 0.66,0 1.32,0 2,0 -0.0838,-1.096992 -0.16758,-2.193984 -0.2539,-3.324219 -0.10322,-1.454402 -0.20606,-2.90883 -0.3086,-4.363281 -0.0841,-1.081846 -0.0841,-1.081846 -0.16992,-2.185547 -0.26713,-3.900094 -0.27645,-7.338063 0.73242,-11.126953 z"
     fill="#cf8779"
     id="path87" />
  <path
     d="m 70.463544,4.1765129 c 0.99,0 1.98,0 3,0 0,1.32 0,2.64 0,4 -0.66,0.66 -1.32,1.32 -2,2.0000001 -0.7071,1.649916 -1.37944,3.315623 -2,5 -0.66,-0.33 -1.32,-0.66 -2,-1 0.75,-7.7500001 0.75,-7.7500001 3,-10.0000001 z"
     fill="#db755d"
     id="path88" />
  <path
     d="m 267.46354,40.176513 c 0.66,0 1.32,0 2,0 0,1.98 0,3.96 0,6 2.475,0.99 2.475,0.99 5,2 0,0.66 0,1.32 0,2 1.32,0 2.64,0 4,0 0,0.66 0,1.32 0,2 -3.85364,-0.268859 -5.76348,-0.820043 -8.875,-3.1875 -2.46989,-3.268969 -2.58985,-4.814754 -2.125,-8.8125 z"
     fill="#abadd5"
     id="path91" />
  <path
     d="m 235.46354,145.17651 c 0.33,0.99 0.66,1.98 1,3 -1.93475,0.53093 -3.87293,1.04942 -5.8125,1.5625 -1.61842,0.43506 -1.61842,0.43506 -3.26953,0.87891 -2.91797,0.55859 -2.91797,0.55859 -5.91797,-0.44141 1.3791,-1.98246 2.49677,-2.89621 4.875,-3.38672 1.39353,-0.15626 2.78966,-0.29115 4.1875,-0.40234 2.1533,-0.16526 2.1533,-0.16526 4.9375,-1.21094 z"
     fill="#6069a1"
     id="path93" />
  <path
     d="m 163.46354,92.176512 c 0.66,0 1.32,0 2,0 -0.28875,0.68063 -0.5775,1.36125 -0.875,2.0625 -1.25097,3.26643 -2.19948,6.565958 -3.125,9.937498 -1.32,-1.32 -2.64,-2.64 -4,-4 0.95044,-1.338968 1.91059,-2.671048 2.875,-3.999998 0.53367,-0.7425 1.06735,-1.485 1.61719,-2.25 0.49758,-0.5775 0.99516,-1.155 1.50781,-1.75 z"
     fill="#9b98bd"
     id="path94" />
  <path
     d="m 147.46354,4.1765129 c 0.2475,0.5775 0.495,1.155 0.75,1.75 2.49216,4.4858821 5.41917,6.6397221 10.25,8.2500001 -0.33,0.99 -0.66,1.98 -1,3 -6.43438,-2.306667 -6.43438,-2.306667 -8.9375,-5.375 -1.12066,-2.7686971 -1.31587,-4.6689791 -1.0625,-7.6250001 z"
     fill="#eab8a6"
     id="path95" />
  <path
     d="m 267.46354,152.17651 c 0.99,0.33 1.98,0.66 3,1 -0.99,0.66 -1.98,1.32 -3,2 -2.56809,4.00321 -4.42017,7.21644 -5,12 -0.66,0 -1.32,0 -2,0 -0.37059,-5.55882 -0.37059,-5.55882 1.3125,-7.5625 0.55688,-0.47437 1.11375,-0.94875 1.6875,-1.4375 1.02305,-1.65262 2.02616,-3.31791 3,-5 0.33,-0.33 0.66,-0.66 1,-1 z"
     fill="#797fbd"
     id="path97" />
  <path
     d="m 262.46354,40.176513 c 1.32,0.33 2.64,0.66 4,1 0.14438,1.2375 0.28875,2.475 0.4375,3.75 0.34939,2.815045 0.7663,5.52015 1.5625,8.25 -0.66,0 -1.32,0 -2,0 -0.33,-1.65 -0.66,-3.3 -1,-5 -0.66,0 -1.32,0 -2,0 -0.33,-2.64 -0.66,-5.28 -1,-8 z"
     fill="#8186bd"
     id="path98" />
  <path
     d="m 67.463544,4.1765129 c 0.99,0.33 1.98,0.66 3,1 -0.30937,0.53625 -0.61875,1.0725 -0.9375,1.625 -1.24077,2.773496 -1.65347,5.3754281 -2.0625,8.3750001 -1.32,-0.33 -2.64,-0.66 -4,-1 1.32,-3.3 2.64,-6.6000001 4,-10.0000001 z"
     fill="#df846c"
     id="path102" />
  <path
     d="m 49.463546,100.17651 c 1.157745,3.47324 1,6.35812 1,10 1.255416,2.51083 2.500635,2.87126 5,4 -2.31,0 -4.62,0 -7,0 -0.02686,-2.14577 -0.04633,-4.29163 -0.0625,-6.4375 -0.0116,-1.19496 -0.0232,-2.38992 -0.03516,-3.62109 0.09766,-2.94141 0.09766,-2.94141 1.097656,-3.94141 z"
     fill="#e1bbac"
     id="path104" />
  <path
     d="m 152.46354,77.176513 c 0.66,1.32 1.32,2.64 2,4 -1.98,2.97 -1.98,2.97 -4,5.999999 -1.5625,-1.812499 -1.5625,-1.812499 -3,-3.999999 0.33,-0.99 0.66,-1.98 1,-3 1.32,0 2.64,0 4,0 0,-0.99 0,-1.98 0,-3 z"
     fill="#da9783"
     id="path105" />
  <path
     d="m 150.46354,116.17651 c 0.99,0 1.98,0 3,0 -0.0722,0.66387 -0.14437,1.32774 -0.21875,2.01172 -0.0928,0.88301 -0.18562,1.76602 -0.28125,2.67578 -0.0928,0.87012 -0.18562,1.74024 -0.28125,2.63672 -0.21035,2.57301 -0.25594,5.09562 -0.21875,7.67578 -0.66,0 -1.32,0 -2,0 0,-4.95 0,-9.9 0,-15 z"
     fill="#bac3d5"
     id="path106" />
  <path
     d="m 197.46354,39.176513 c 0.66,0.33 1.32,0.66 2,1 -0.33,0.66 -0.66,1.32 -1,2 -0.66,0 -1.32,0 -2,0 -0.30937,0.94875 -0.61875,1.8975 -0.9375,2.875 -1.0625,3.125 -1.0625,3.125 -2.0625,5.125 -0.66,0 -1.32,0 -2,0 -0.33,0.66 -0.66,1.32 -1,2 0.56411,-3.948761 1.65736,-6.756342 4,-10 0.99,-0.33 1.98,-0.66 3,-1 0,-0.66 0,-1.32 0,-2 z"
     fill="#414559"
     id="path107" />
  <path
     d="m 278.46354,153.17651 c -1.32,0.33 -2.64,0.66 -4,1 0,0.66 0,1.32 0,2 -1.65071,1.02612 -3.3197,2.02308 -5,3 -1.75149,1.58245 -1.75149,1.58245 -3,3 0.875,-4.75 0.875,-4.75 2,-7 3.4533,-1.72665 6.15831,-2.21952 10,-2 z"
     fill="#9598cc"
     id="path108" />
  <path
     d="m 215.46354,152.17651 c -0.33,0.66 -0.66,1.32 -1,2 -5.36865,1.72889 -10.48903,2.45026 -16,1 0,-0.33 0,-0.66 0,-1 11.52164,-2.29613 11.52164,-2.29613 17,-2 z"
     fill="#494b5f"
     id="path109" />
  <path
     d="m 159.46354,102.17651 c 0.33,0 0.66,0 1,0 0.0539,2.12473 0.0927,4.24984 0.125,6.375 0.0232,1.18336 0.0464,2.36672 0.0703,3.58594 -0.19531,3.03906 -0.19531,3.03906 -2.19531,5.03906 -2.72869,-0.0329 -5.29666,-0.56398 -8,-1 0,-0.33 0,-0.66 0,-1 4.455,-0.495 4.455,-0.495 9,-1 0,-3.96 0,-7.92 0,-12 z"
     fill="#b7a9c2"
     id="path110" />
  <path
     d="m 115.27604,113.11401 c 1.16145,0.009 2.32289,0.018 3.51953,0.0273 0.88043,0.0116 1.76086,0.0232 2.66797,0.0352 -2.58403,2.53836 -3.76068,2.99486 -7.45312,3.07422 -1.25297,-0.12762 -2.50594,-0.25523 -3.79688,-0.38672 -1.89492,-0.17982 -1.89492,-0.17982 -3.82812,-0.36328 -0.96422,-0.10699 -1.92844,-0.21398 -2.92188,-0.32422 0,-0.33 0,-0.66 0,-1 3.99796,-0.9562 7.70804,-1.10396 11.8125,-1.0625 z"
     fill="#ebe3d7"
     id="path112" />
  <path
     d="m 266.46354,40.176513 c 0.33,0 0.66,0 1,0 0.33,3.3 0.66,6.6 1,10 0.66,0 1.32,0 2,0 0.33,0.99 0.66,1.98 1,3 -1.32,-0.33 -2.64,-0.66 -4,-1 -1.47075,-4.412257 -2.36884,-7.482816 -1,-12 z"
     fill="#9094c8"
     id="path113" />
  <path
     d="m 157.46354,75.176513 c 0.33,0 0.66,0 1,0 0,1.65 0,3.3 0,5 -0.66,0 -1.32,0 -2,0 -0.33,1.32 -0.66,2.64 -1,4 -1.32,0.33 -2.64,0.66 -4,1 1.92881,-3.407553 3.82765,-6.741476 6,-10 z"
     fill="#5f443d"
     id="path115" />
  <path
     d="m 48.463546,20.176513 c 2.64,0 5.28,0 8,0 -1.75,2 -1.75,2 -4,4 -1.32,0 -2.64,0 -4,0 0,-1.32 0,-2.64 0,-4 z"
     fill="#db886f"
     id="path116" />
  <path
     d="m 57.463546,221.17651 c 0.66,1.32 1.32,2.64 2,4 -0.33,0 -0.66,0 -1,0 -0.33,1.65 -0.66,3.3 -1,5 -1.32,-0.66 -2.64,-1.32 -4,-2 1.203815,-2.49361 2.454287,-4.68143 4,-7 z"
     fill="#485646"
     id="path119" />
  <path
     d="m 182.46354,156.17651 c -2.96179,1.6711 -5.37071,2.32683 -8.75,2.625 -0.79922,0.0748 -1.59844,0.14953 -2.42187,0.22656 -0.60328,0.049 -1.20657,0.098 -1.82813,0.14844 0,-0.66 0,-1.32 0,-2 0.76313,-0.14437 1.52625,-0.28875 2.3125,-0.4375 6.9875,-1.4625 6.9875,-1.4625 10.6875,-0.5625 z"
     fill="#a2a3c4"
     id="path120" />
  <path
     d="m 123.46354,155.17651 c 0.66,0 1.32,0 2,0 -0.33,1.32 -0.66,2.64 -1,4 -1.98,0.33 -3.96,0.66 -6,1 0.33,-1.32 0.66,-2.64 1,-4 1.98,0.495 1.98,0.495 4,1 0,-0.66 0,-1.32 0,-2 z"
     fill="#f0f6f0"
     id="path121" />
  <path
     d="m 130.46354,113.17651 c -0.33,1.32 -0.66,2.64 -1,4 -2.34312,-0.25561 -4.67843,-0.59271 -7,-1 -0.33,-0.66 -0.66,-1.32 -1,-2 3.07323,-0.91058 5.80098,-1.08886 9,-1 z"
     fill="#e6e0d1"
     id="path122" />
  <path
     d="m 155.46354,99.176512 c 0.66,0 1.32,0 2,0 -0.61454,3.994558 -2.70647,6.744658 -5,9.999998 -0.66,-0.99 -1.32,-1.98 -2,-3 0.66,0 1.32,0 2,0 0.12375,-0.59812 0.2475,-1.19625 0.375,-1.8125 0.625,-2.1875 0.625,-2.1875 2.625,-5.187498 z"
     fill="#554742"
     id="path123" />
  <path
     d="m 193.46354,22.176513 c 0,2.962009 -0.0634,5.190313 -1,8 -2.5625,1.3125 -2.5625,1.3125 -5,2 1.36972,-3.995006 3.25723,-6.800095 6,-10 z"
     fill="#8f8f8f"
     id="path124" />
  <path
     d="m 211.46354,15.176513 c 2.0625,0.4375 2.0625,0.4375 4,1 -0.56371,3.269542 -1.49962,4.825759 -4,7 -0.38063,-2.326086 -0.7127,-4.660553 -1,-7 0.33,-0.33 0.66,-0.66 1,-1 z"
     fill="#939392"
     id="path125" />
  <path
     d="m 68.463544,200.17651 c 0.66,0.33 1.32,0.66 2,1 -0.66,1.65 -1.32,3.3 -2,5 -0.99,0 -1.98,0 -3,0 -0.33,-0.99 -0.66,-1.98 -1,-3 1,-2 1,-2 4,-3 z"
     fill="#d3e5d2"
     id="path126" />
  <path
     d="m 207.46354,151.17651 c 0,0.66 0,1.32 0,2 -3.96,0.66 -7.92,1.32 -12,2 4.77947,-3.5846 6.19412,-4.12621 12,-4 z"
     fill="#7e81ac"
     id="path127" />
  <path
     d="m 2.4635458,223.17651 c 0.33,0 0.66,0 1,0 2.296128,9.41002 2.296128,9.41002 2,14 -2,-1 -2,-1 -3,-4 -0.06803,-1.72795 -0.08496,-3.45835 -0.0625,-5.1875 0.009,-0.90105 0.01805,-1.80211 0.02734,-2.73047 0.0116,-0.68707 0.0232,-1.37414 0.03516,-2.08203 z"
     fill="#cee1cd"
     id="path128" />
  <path
     d="m 139.46354,97.176512 c 0.6875,1.8125 0.6875,1.8125 1,3.999998 -1.4375,1.75 -1.4375,1.75 -3,3 -0.99,-0.33 -1.98,-0.66 -3,-1 1.75,-3.874998 1.75,-3.874998 4,-4.999998 0.33,-0.33 0.66,-0.66 1,-1 z"
     fill="#e5b8a8"
     id="path131" />
  <path
     d="m 162.46354,71.176513 c 0.66,0 1.32,0 2,0 0,1.98 0,3.96 0,6 -0.99,0.495 -0.99,0.495 -2,1 0,-0.99 0,-1.98 0,-3 -0.66,0 -1.32,0 -2,0 0.66,-1.32 1.32,-2.64 2,-4 z m -4,4 c 0.99,0.495 0.99,0.495 2,1 -0.99,0.495 -0.99,0.495 -2,1 0,-0.66 0,-1.32 0,-2 z"
     fill="#484242"
     id="path132" />
  <path
     d="m 274.46354,39.176513 c 2.475,0.495 2.475,0.495 5,1 0,1.65 0,3.3 0,5 -1.32,-0.33 -2.64,-0.66 -4,-1 -0.33,-1.65 -0.66,-3.3 -1,-5 z"
     fill="#f5f6fa"
     id="path133" />
  <path
     d="m 47.463546,184.17651 c 0.33,0.99 0.66,1.98 1,3 2.31,0.33 4.62,0.66 7,1 -0.33,1.32 -0.66,2.64 -1,4 -0.66,-0.66 -1.32,-1.32 -2,-2 -1.268437,-0.46406 -1.268437,-0.46406 -2.5625,-0.9375 -0.804375,-0.35062 -1.60875,-0.70125 -2.4375,-1.0625 -0.33,-0.99 -0.66,-1.98 -1,-3 0.33,-0.33 0.66,-0.66 1,-1 z"
     fill="#d5e9d4"
     id="path134" />
  <path
     d="m 268.46354,53.176513 c 3.3,0.33 6.6,0.66 10,1 0,0.66 0,1.32 0,2 -3.3125,0.1875 -3.3125,0.1875 -7,0 -0.99,-0.99 -1.98,-1.98 -3,-3 z"
     fill="#8185c1"
     id="path135" />
  <path
     d="m 134.46354,4.1765129 c 1.98,0 3.96,0 6,0 0.66,1.65 1.32,3.3 2,5 -0.99,0.495 -0.99,0.495 -2,1.0000001 -0.66,-1.3200001 -1.32,-2.6400001 -2,-4.0000001 -0.99,0.495 -0.99,0.495 -2,1 -0.66,-0.33 -1.32,-0.66 -2,-1 0,-0.66 0,-1.32 0,-2 z"
     fill="#d87560"
     id="path136" />
  <path
     d="m 126.46354,120.17651 c 0.66,0.66 1.32,1.32 2,2 -0.375,2.125 -0.375,2.125 -1,4 -0.99,0 -1.98,0 -3,0 -0.33,0.99 -0.66,1.98 -1,3 -0.33,-0.99 -0.66,-1.98 -1,-3 1.9375,-3.1875 1.9375,-3.1875 4,-6 z"
     fill="#4d514d"
     id="path139" />
  <path
     d="m 49.463546,3.1765129 c 1.65,0 3.3,0 5,0 -0.33,0.99 -0.66,1.98 -1,3 -1.98,0.33 -3.96,0.66 -6,1 0.66,-1.32 1.32,-2.64 2,-4 z"
     fill="#fcfbf9"
     id="path140" />
  <path
     d="m 3.4635458,245.17651 c 4.455,0.99 4.455,0.99 9.0000002,2 0,0.33 0,0.66 0,1 -2.9700002,0 -5.9400002,0 -9.0000002,0 0,-0.99 0,-1.98 0,-3 z"
     fill="#d7ebd6"
     id="path143" />
  <path
     d="m 89.463544,199.17651 c 1.32,0 2.64,0 4,0 -0.66,1.65 -1.32,3.3 -2,5 -0.99,0 -1.98,0 -3,0 0.33,-1.65 0.66,-3.3 1,-5 z"
     fill="#e0eadd"
     id="path144" />
  <path
     d="m 137.46354,129.17651 c 0.33,0.66 0.66,1.32 1,2 0.66,0.33 1.32,0.66 2,1 -0.99,0.99 -1.98,1.98 -3,3 -0.99,-0.33 -1.98,-0.66 -3,-1 0.99,-1.65 1.98,-3.3 3,-5 z"
     fill="#d5dfd4"
     id="path145" />
  <path
     d="m 144.46354,94.176512 c 1,2 1,2 0.25,5.0625 -0.4125,0.969378 -0.825,1.938748 -1.25,2.937498 -0.99,0.33 -1.98,0.66 -3,1 0.64545,-3.485398 2.10135,-6.028188 4,-8.999998 z"
     fill="#5a4943"
     id="path146" />
  <path
     d="m 157.46354,101.17651 c 0.33,0 0.66,0 1,0 0,2.64 0,5.28 0,8 -0.33,-0.99 -0.66,-1.98 -1,-3 -0.99,0 -1.98,0 -3,0 1.875,-3.875 1.875,-3.875 3,-5 z"
     fill="#d1a9a2"
     id="path149" />
  <path
     d="m 162.46354,89.176512 c 0.66,0.66 1.32,1.32 2,2 -1.98,2.97 -1.98,2.97 -4,6 -0.6875,-1.75 -0.6875,-1.75 -1,-4 1.4375,-2.25 1.4375,-2.25 3,-4 z"
     fill="#4a4a59"
     id="path150" />
  <path
     d="m 176.46354,41.176513 c 1.32,0 2.64,0 4,0 -1.75,4.875 -1.75,4.875 -4,6 -1.125,-3.75 -1.125,-3.75 0,-6 z"
     fill="#5f659f"
     id="path151" />
</svg>
